<svg xmlns="http://www.w3.org/2000/svg" xmlns:xlink="http://www.w3.org/1999/xlink" version="1.1" x="0px" y="0px" viewBox="0 0 46.6699 58.336125" enable-background="new 0 0 46.6699 46.6689" xml:space="preserve"><path fill = "#ffffff" d="M2.835,46.6685c0.7256,0,1.4512-0.2769,2.0039-0.8301L23.334,27.3433l18.4951,18.4956  c0.5537,0.5537,1.2793,0.8301,2.0049,0.8301s1.4512-0.2764,2.0039-0.8301c1.1074-1.1069,1.1074-2.9019,0.001-4.0088L27.3438,23.334  L45.8389,4.8394c1.1074-1.1069,1.1074-2.9019,0.001-4.0088c-1.1074-1.1074-2.9033-1.1064-4.0088,0l-41,40.999  c-1.1074,1.1069-1.1074,2.9019-0.001,4.0088C1.3838,46.3921,2.1094,46.6685,2.835,46.6685z"/><path fill = "#ffffff" d="M7.4961,11.5049c0.001,0.001,0.002,0.0015,0.0029,0.0024l8.0166,8.0166l4.0088-4.0088l-8.0166-8.0166  c-0.001-0.0005-0.001-0.0015-0.002-0.0024l-6.665-6.666c-1.1074-1.1064-2.9033-1.1074-4.0088,0  c-1.1074,1.1069-1.1074,2.9014-0.001,4.0088L7.4961,11.5049z"/><text x="0" y="61.6689" fill="#000000" font-size="5px" font-weight="bold" font-family="'Helvetica Neue', Helvetica, Arial-Unicode, Arial, Sans-serif">Created by Michele Ficeli</text><text x="0" y="66.66890000000001" fill="#000000" font-size="5px" font-weight="bold" font-family="'Helvetica Neue', Helvetica, Arial-Unicode, Arial, Sans-serif">from the Noun Project</text></svg>