<svg xmlns="http://www.w3.org/2000/svg" xmlns:xlink="http://www.w3.org/1999/xlink" version="1.1" x="0px" y="0px" viewBox="0 0 100 125" enable-background="new 0 0 100 100" xml:space="preserve"><rect x="5" y="5" fill="none" width="90" height="90"/><path fill="rgb(248, 139, 120)" d="M25.428,20.487h-5.855c-2.246,0-4.072,1.827-4.072,4.072v3.855c0,2.246,1.827,4.072,4.072,4.072h5.855  c2.246,0,4.072-1.827,4.072-4.072V24.56C29.5,22.314,27.673,20.487,25.428,20.487z M28.5,28.415c0,1.694-1.378,3.072-3.072,3.072  h-5.855c-1.694,0-3.072-1.378-3.072-3.072V24.56c0-1.694,1.378-3.072,3.072-3.072h5.855c1.694,0,3.072,1.378,3.072,3.072V28.415z"/><path fill="rgb(248, 139, 120)" d="M80.428,20.487H36.572c-2.246,0-4.072,1.827-4.072,4.072v3.855c0,2.246,1.827,4.072,4.072,4.072h43.855  c2.245,0,4.072-1.827,4.072-4.072V24.56C84.5,22.314,82.673,20.487,80.428,20.487z M83.5,28.415c0,1.694-1.378,3.072-3.072,3.072  H36.572c-1.694,0-3.072-1.378-3.072-3.072V24.56c0-1.694,1.378-3.072,3.072-3.072h43.855c1.694,0,3.072,1.378,3.072,3.072V28.415z"/><path fill="rgb(248, 139, 120)" d="M25.428,36.487h-5.855c-2.246,0-4.072,1.827-4.072,4.072v3.856c0,2.246,1.827,4.072,4.072,4.072h5.855  c2.246,0,4.072-1.826,4.072-4.072v-3.856C29.5,38.314,27.673,36.487,25.428,36.487z M28.5,44.416c0,1.694-1.378,3.072-3.072,3.072  h-5.855c-1.694,0-3.072-1.378-3.072-3.072v-3.856c0-1.694,1.378-3.072,3.072-3.072h5.855c1.694,0,3.072,1.378,3.072,3.072V44.416z"/><path fill="rgb(248, 139, 120)" d="M80.428,36.487H36.572c-2.246,0-4.072,1.827-4.072,4.072v3.856c0,2.246,1.827,4.072,4.072,4.072h43.855  c2.245,0,4.072-1.826,4.072-4.072v-3.856C84.5,38.314,82.673,36.487,80.428,36.487z M83.5,44.416c0,1.694-1.378,3.072-3.072,3.072  H36.572c-1.694,0-3.072-1.378-3.072-3.072v-3.856c0-1.694,1.378-3.072,3.072-3.072h43.855c1.694,0,3.072,1.378,3.072,3.072V44.416z"/><path fill="rgb(248, 139, 120)" d="M25.428,52.487h-5.855c-2.246,0-4.072,1.827-4.072,4.072v3.855c0,2.245,1.827,4.072,4.072,4.072h5.855  c2.246,0,4.072-1.827,4.072-4.072V56.56C29.5,54.314,27.673,52.487,25.428,52.487z M28.5,60.415c0,1.694-1.378,3.072-3.072,3.072  h-5.855c-1.694,0-3.072-1.378-3.072-3.072V56.56c0-1.694,1.378-3.072,3.072-3.072h5.855c1.694,0,3.072,1.378,3.072,3.072V60.415z"/><path fill="rgb(248, 139, 120)" d="M80.428,52.487H36.572c-2.246,0-4.072,1.827-4.072,4.072v3.855c0,2.245,1.827,4.072,4.072,4.072h29.959  l0.014-1H36.572c-1.694,0-3.072-1.378-3.072-3.072V56.56c0-1.694,1.378-3.072,3.072-3.072h43.855c1.694,0,3.072,1.378,3.072,3.072  v3.855c0,1.694-1.378,3.072-3.072,3.072h-6.969l1.006,1h5.963c2.245,0,4.072-1.827,4.072-4.072V56.56  C84.5,54.314,82.673,52.487,80.428,52.487z"/><polygon fill="rgb(248, 139, 120)" points="79.1,70.29 73.778,72.562 74.039,73.215 80.479,70.467 74.465,64.487 73.264,64.487 "/><polygon fill="rgb(248, 139, 120)" points="66.369,75.724 66.358,76.492 73.12,73.606 72.859,72.954 "/><polygon fill="rgb(248, 139, 120)" points="66.626,57.888 72.258,63.487 73.459,63.487 66.643,56.709 66.545,63.487 66.545,63.487 "/><polygon fill="rgb(248, 139, 120)" points="66.531,64.487 66.491,67.266 66.531,64.487 "/><rect x="66.538" y="63.487" fill="rgb(248, 139, 120)" width="0" height="1"/><polygon fill="rgb(248, 139, 120)" points="72.258,63.487 73.264,64.487 74.465,64.487 73.459,63.487 "/><polygon fill="rgb(248, 139, 120)" points="72.757,72.698 73.685,72.327 73.778,72.562 79.1,70.29 73.264,64.487 73.047,64.487 78.722,70.129   67.381,74.969 67.531,64.487 66.531,64.487 66.491,67.266 66.369,75.724 72.859,72.954 "/><polygon fill="rgb(248, 139, 120)" points="66.545,63.487 67.546,63.487 67.609,59.081 72.041,63.487 72.258,63.487 66.626,57.888 "/><polygon fill="rgb(248, 139, 120)" points="66.545,63.487 66.531,64.487 67.531,64.487 67.546,63.487 "/><polygon fill="rgb(248, 139, 120)" points="73.047,64.487 73.264,64.487 72.258,63.487 72.041,63.487 "/><polygon fill="rgb(248, 139, 120)" points="75.481,79.513 76.409,79.142 74.039,73.215 73.12,73.606 "/><polygon fill="rgb(248, 139, 120)" points="72.859,72.954 73.12,73.606 74.039,73.215 73.778,72.562 "/><polygon fill="rgb(248, 139, 120)" points="72.757,72.698 72.859,72.954 73.778,72.562 73.685,72.327 "/></svg>